<?xml version="1.0" encoding="UTF-8"?><svg xmlns="http://www.w3.org/2000/svg" xmlns:xlink="http://www.w3.org/1999/xlink" stroke-dasharray="none" shape-rendering="auto" font-family="'Dialog'" width="1996" text-rendering="auto" fill-opacity="1" contentScriptType="text/ecmascript" color-interpolation="auto" color-rendering="auto" preserveAspectRatio="xMidYMid meet" font-size="12" fill="black" stroke="black" image-rendering="auto" stroke-miterlimit="10" zoomAndPan="magnify" version="1.0" stroke-linecap="square" stroke-linejoin="miter" contentStyleType="text/css" font-style="normal" height="1175" stroke-width="1" stroke-dashoffset="0" font-weight="normal" stroke-opacity="1">
    <!--Generated by the Batik Graphics2D SVG Generator-->
    <defs id="genericDefs"/>
    <g>
        <defs id="defs1">
            <clipPath clipPathUnits="userSpaceOnUse" id="clipPath1">
                <path d="M28 22 L1968 22 L1968 1153 L28 1153 L28 22 Z"/>
            </clipPath>
            <clipPath clipPathUnits="userSpaceOnUse" id="clipPath2">
                <path d="M-1 -1 L1997 -1 L1997 1176 L-1 1176 L-1 -1 Z"/>
            </clipPath>
        </defs>
        <g font-size="14" fill="white" text-rendering="geometricPrecision" font-family="'Ubuntu'" stroke-linejoin="round" stroke="white" stroke-width="0" stroke-miterlimit="0">
            <rect x="29" y="23" clip-path="url(#clipPath1)" width="1938" height="1129" stroke="none"/>
        </g>
        <g stroke-linecap="butt" font-size="14" fill="rgb(0,0,139)" text-rendering="geometricPrecision" font-family="'Ubuntu'" stroke="rgb(0,0,139)">
            <line clip-path="url(#clipPath1)" fill="none" x1="1116" x2="1118" y1="700" y2="700"/>
            <line clip-path="url(#clipPath1)" fill="none" x1="1118" x2="1119" y1="700" y2="700"/>
            <line clip-path="url(#clipPath1)" fill="none" x1="1119" x2="1120" y1="700" y2="700"/>
            <line clip-path="url(#clipPath1)" fill="none" x1="1120" x2="1123" y1="700" y2="700"/>
            <line clip-path="url(#clipPath1)" fill="none" x1="1123" x2="1124" y1="700" y2="700"/>
            <line clip-path="url(#clipPath1)" fill="none" x1="1124" x2="1125" y1="700" y2="700"/>
            <line clip-path="url(#clipPath1)" fill="none" x1="1125" x2="1126" y1="700" y2="700"/>
            <line clip-path="url(#clipPath1)" fill="none" x1="1126" x2="1127" y1="700" y2="700"/>
            <line clip-path="url(#clipPath1)" fill="none" x1="1127" x2="1128" y1="700" y2="700"/>
            <line clip-path="url(#clipPath1)" fill="none" x1="1128" x2="1130" y1="700" y2="700"/>
            <line clip-path="url(#clipPath1)" fill="none" x1="1130" x2="1131" y1="700" y2="700"/>
            <line clip-path="url(#clipPath1)" fill="none" x1="1131" x2="1139" y1="700" y2="700"/>
            <line clip-path="url(#clipPath1)" fill="none" x1="1139" x2="1143" y1="700" y2="700"/>
            <line clip-path="url(#clipPath1)" fill="none" x1="1143" x2="1144" y1="700" y2="700"/>
            <line clip-path="url(#clipPath1)" fill="none" x1="1144" x2="1145" y1="700" y2="700"/>
            <line clip-path="url(#clipPath1)" fill="none" x1="1145" x2="1148" y1="700" y2="700"/>
            <line clip-path="url(#clipPath1)" fill="none" x1="1148" x2="1149" y1="700" y2="700"/>
            <line clip-path="url(#clipPath1)" fill="none" x1="1149" x2="1150" y1="700" y2="700"/>
            <line clip-path="url(#clipPath1)" fill="none" x1="1150" x2="1152" y1="700" y2="700"/>
            <line clip-path="url(#clipPath1)" fill="none" x1="1152" x2="1153" y1="700" y2="700"/>
            <line clip-path="url(#clipPath1)" fill="none" x1="1153" x2="1156" y1="700" y2="700"/>
            <line clip-path="url(#clipPath1)" fill="none" x1="1156" x2="1158" y1="700" y2="700"/>
            <line clip-path="url(#clipPath1)" fill="none" x1="1158" x2="1159" y1="700" y2="700"/>
            <line clip-path="url(#clipPath1)" fill="none" x1="1159" x2="1164" y1="700" y2="700"/>
            <line clip-path="url(#clipPath1)" fill="none" x1="1164" x2="1165" y1="700" y2="700"/>
            <line clip-path="url(#clipPath1)" fill="none" x1="1165" x2="1166" y1="700" y2="700"/>
            <line clip-path="url(#clipPath1)" fill="none" x1="1166" x2="1168" y1="700" y2="700"/>
            <line clip-path="url(#clipPath1)" fill="none" x1="1168" x2="1173" y1="700" y2="700"/>
            <line clip-path="url(#clipPath1)" fill="none" x1="1173" x2="1174" y1="700" y2="700"/>
            <line clip-path="url(#clipPath1)" fill="none" x1="1174" x2="1178" y1="700" y2="700"/>
            <line clip-path="url(#clipPath1)" fill="none" x1="1178" x2="1179" y1="700" y2="700"/>
            <line clip-path="url(#clipPath1)" fill="none" x1="1179" x2="1180" y1="700" y2="700"/>
            <line clip-path="url(#clipPath1)" fill="none" x1="1180" x2="1187" y1="700" y2="700"/>
            <line clip-path="url(#clipPath1)" fill="none" x1="1187" x2="1195" y1="700" y2="700"/>
            <line clip-path="url(#clipPath1)" fill="none" x1="1195" x2="1197" y1="700" y2="700"/>
            <line clip-path="url(#clipPath1)" fill="none" x1="1197" x2="1205" y1="700" y2="700"/>
            <line clip-path="url(#clipPath1)" fill="none" x1="1205" x2="1206" y1="700" y2="700"/>
            <line clip-path="url(#clipPath1)" fill="none" x1="1206" x2="1207" y1="700" y2="700"/>
            <line clip-path="url(#clipPath1)" fill="none" x1="1207" x2="1212" y1="700" y2="700"/>
            <line clip-path="url(#clipPath1)" fill="none" x1="1212" x2="1217" y1="700" y2="700"/>
            <line clip-path="url(#clipPath1)" fill="none" x1="1217" x2="1218" y1="700" y2="700"/>
            <line clip-path="url(#clipPath1)" fill="none" x1="1218" x2="1219" y1="700" y2="700"/>
            <line clip-path="url(#clipPath1)" fill="none" x1="1219" x2="1230" y1="700" y2="700"/>
            <line clip-path="url(#clipPath1)" fill="none" x1="1230" x2="1233" y1="700" y2="700"/>
            <line clip-path="url(#clipPath1)" fill="none" x1="1233" x2="1238" y1="700" y2="700"/>
            <line clip-path="url(#clipPath1)" fill="none" x1="1238" x2="1240" y1="700" y2="700"/>
            <line clip-path="url(#clipPath1)" fill="none" x1="1240" x2="1242" y1="700" y2="700"/>
            <line clip-path="url(#clipPath1)" fill="none" x1="1242" x2="1243" y1="700" y2="700"/>
            <line clip-path="url(#clipPath1)" fill="none" x1="1243" x2="1246" y1="700" y2="700"/>
            <line clip-path="url(#clipPath1)" fill="none" x1="1246" x2="1249" y1="700" y2="700"/>
            <line clip-path="url(#clipPath1)" fill="none" x1="1249" x2="1252" y1="700" y2="700"/>
            <line clip-path="url(#clipPath1)" fill="none" x1="1252" x2="1258" y1="700" y2="700"/>
            <line clip-path="url(#clipPath1)" fill="none" x1="1258" x2="1259" y1="700" y2="700"/>
            <line clip-path="url(#clipPath1)" fill="none" x1="1259" x2="1261" y1="700" y2="700"/>
            <line clip-path="url(#clipPath1)" fill="none" x1="1261" x2="1265" y1="700" y2="700"/>
            <line clip-path="url(#clipPath1)" fill="none" x1="1265" x2="1276" y1="700" y2="700"/>
            <line clip-path="url(#clipPath1)" fill="none" x1="1276" x2="1278" y1="700" y2="700"/>
            <line clip-path="url(#clipPath1)" fill="none" x1="1278" x2="1280" y1="700" y2="700"/>
            <line clip-path="url(#clipPath1)" fill="none" x1="1280" x2="1285" y1="700" y2="700"/>
            <line clip-path="url(#clipPath1)" fill="none" x1="1285" x2="1286" y1="700" y2="700"/>
            <line clip-path="url(#clipPath1)" fill="none" x1="1286" x2="1288" y1="700" y2="700"/>
            <line clip-path="url(#clipPath1)" fill="none" x1="1288" x2="1294" y1="700" y2="700"/>
            <line clip-path="url(#clipPath1)" fill="none" x1="1294" x2="1309" y1="700" y2="700"/>
            <line clip-path="url(#clipPath1)" fill="none" x1="1309" x2="1316" y1="700" y2="700"/>
            <line clip-path="url(#clipPath1)" fill="none" x1="1316" x2="1318" y1="700" y2="700"/>
            <line clip-path="url(#clipPath1)" fill="none" x1="1318" x2="1319" y1="700" y2="700"/>
            <line clip-path="url(#clipPath1)" fill="none" x1="1319" x2="1320" y1="700" y2="700"/>
            <line clip-path="url(#clipPath1)" fill="none" x1="1320" x2="1323" y1="700" y2="700"/>
            <line clip-path="url(#clipPath1)" fill="none" x1="1323" x2="1329" y1="700" y2="700"/>
            <line clip-path="url(#clipPath1)" fill="none" x1="1329" x2="1340" y1="700" y2="700"/>
            <line clip-path="url(#clipPath1)" fill="none" x1="1340" x2="1342" y1="700" y2="700"/>
            <line clip-path="url(#clipPath1)" fill="none" x1="1342" x2="1344" y1="700" y2="700"/>
            <line clip-path="url(#clipPath1)" fill="none" x1="1344" x2="1353" y1="700" y2="700"/>
            <line clip-path="url(#clipPath1)" fill="none" x1="1353" x2="1363" y1="700" y2="700"/>
            <line clip-path="url(#clipPath1)" fill="none" x1="1363" x2="1366" y1="700" y2="700"/>
            <line clip-path="url(#clipPath1)" fill="none" x1="1366" x2="1373" y1="700" y2="700"/>
            <line clip-path="url(#clipPath1)" fill="none" x1="1373" x2="1389" y1="700" y2="700"/>
            <line clip-path="url(#clipPath1)" fill="none" x1="1389" x2="1411" y1="700" y2="700"/>
            <line clip-path="url(#clipPath1)" fill="none" x1="1411" x2="1417" y1="700" y2="700"/>
            <line clip-path="url(#clipPath1)" fill="none" x1="1417" x2="1434" y1="700" y2="700"/>
            <line clip-path="url(#clipPath1)" fill="none" x1="1434" x2="1482" y1="700" y2="700"/>
            <line clip-path="url(#clipPath1)" fill="none" x1="1482" x2="1510" y1="700" y2="700"/>
            <rect x="29" y="23" clip-path="url(#clipPath2)" fill="none" width="1938" height="1129" stroke="black"/>
        </g>
        <g text-rendering="geometricPrecision" font-size="13" stroke-linecap="butt">
            <line clip-path="url(#clipPath2)" fill="none" x1="29" x2="1967" y1="21" y2="21"/>
            <line clip-path="url(#clipPath2)" fill="none" x1="29" x2="1967" y1="1154" y2="1154"/>
            <line clip-path="url(#clipPath2)" fill="none" x1="29" x2="29" y1="17" y2="21"/>
            <line clip-path="url(#clipPath2)" fill="none" x1="29" x2="29" y1="1158" y2="1154"/>
            <text x="18" font-size="10" y="14" clip-path="url(#clipPath2)" stroke="none" xml:space="preserve">0.000</text>
            <text x="18" font-size="10" y="1169" clip-path="url(#clipPath2)" stroke="none" xml:space="preserve">0.000</text>
            <line clip-path="url(#clipPath2)" fill="none" x1="48" x2="48" y1="19" y2="21"/>
            <line clip-path="url(#clipPath2)" fill="none" x1="48" x2="48" y1="1156" y2="1154"/>
            <line clip-path="url(#clipPath2)" fill="none" x1="68" x2="68" y1="19" y2="21"/>
            <line clip-path="url(#clipPath2)" fill="none" x1="68" x2="68" y1="1156" y2="1154"/>
            <line clip-path="url(#clipPath2)" fill="none" x1="88" x2="88" y1="19" y2="21"/>
            <line clip-path="url(#clipPath2)" fill="none" x1="88" x2="88" y1="1156" y2="1154"/>
            <line clip-path="url(#clipPath2)" fill="none" x1="108" x2="108" y1="19" y2="21"/>
            <line clip-path="url(#clipPath2)" fill="none" x1="108" x2="108" y1="1156" y2="1154"/>
            <line clip-path="url(#clipPath2)" fill="none" x1="127" x2="127" y1="17" y2="21"/>
            <line clip-path="url(#clipPath2)" fill="none" x1="127" x2="127" y1="1158" y2="1154"/>
            <text x="113" font-size="10" y="14" clip-path="url(#clipPath2)" stroke="none" xml:space="preserve">0.0010</text>
            <text x="113" font-size="10" y="1169" clip-path="url(#clipPath2)" stroke="none" xml:space="preserve">0.0010</text>
            <line clip-path="url(#clipPath2)" fill="none" x1="147" x2="147" y1="19" y2="21"/>
            <line clip-path="url(#clipPath2)" fill="none" x1="147" x2="147" y1="1156" y2="1154"/>
            <line clip-path="url(#clipPath2)" fill="none" x1="167" x2="167" y1="19" y2="21"/>
            <line clip-path="url(#clipPath2)" fill="none" x1="167" x2="167" y1="1156" y2="1154"/>
            <line clip-path="url(#clipPath2)" fill="none" x1="187" x2="187" y1="19" y2="21"/>
            <line clip-path="url(#clipPath2)" fill="none" x1="187" x2="187" y1="1156" y2="1154"/>
            <line clip-path="url(#clipPath2)" fill="none" x1="206" x2="206" y1="19" y2="21"/>
            <line clip-path="url(#clipPath2)" fill="none" x1="206" x2="206" y1="1156" y2="1154"/>
            <line clip-path="url(#clipPath2)" fill="none" x1="226" x2="226" y1="17" y2="21"/>
            <line clip-path="url(#clipPath2)" fill="none" x1="226" x2="226" y1="1158" y2="1154"/>
            <text x="212" font-size="10" y="14" clip-path="url(#clipPath2)" stroke="none" xml:space="preserve">0.0020</text>
            <text x="212" font-size="10" y="1169" clip-path="url(#clipPath2)" stroke="none" xml:space="preserve">0.0020</text>
            <line clip-path="url(#clipPath2)" fill="none" x1="246" x2="246" y1="19" y2="21"/>
            <line clip-path="url(#clipPath2)" fill="none" x1="246" x2="246" y1="1156" y2="1154"/>
            <line clip-path="url(#clipPath2)" fill="none" x1="266" x2="266" y1="19" y2="21"/>
            <line clip-path="url(#clipPath2)" fill="none" x1="266" x2="266" y1="1156" y2="1154"/>
            <line clip-path="url(#clipPath2)" fill="none" x1="286" x2="286" y1="19" y2="21"/>
            <line clip-path="url(#clipPath2)" fill="none" x1="286" x2="286" y1="1156" y2="1154"/>
            <line clip-path="url(#clipPath2)" fill="none" x1="305" x2="305" y1="19" y2="21"/>
            <line clip-path="url(#clipPath2)" fill="none" x1="305" x2="305" y1="1156" y2="1154"/>
            <line clip-path="url(#clipPath2)" fill="none" x1="325" x2="325" y1="17" y2="21"/>
            <line clip-path="url(#clipPath2)" fill="none" x1="325" x2="325" y1="1158" y2="1154"/>
            <text x="311" font-size="10" y="14" clip-path="url(#clipPath2)" stroke="none" xml:space="preserve">0.0030</text>
            <text x="311" font-size="10" y="1169" clip-path="url(#clipPath2)" stroke="none" xml:space="preserve">0.0030</text>
            <line clip-path="url(#clipPath2)" fill="none" x1="345" x2="345" y1="19" y2="21"/>
            <line clip-path="url(#clipPath2)" fill="none" x1="345" x2="345" y1="1156" y2="1154"/>
            <line clip-path="url(#clipPath2)" fill="none" x1="365" x2="365" y1="19" y2="21"/>
            <line clip-path="url(#clipPath2)" fill="none" x1="365" x2="365" y1="1156" y2="1154"/>
            <line clip-path="url(#clipPath2)" fill="none" x1="384" x2="384" y1="19" y2="21"/>
            <line clip-path="url(#clipPath2)" fill="none" x1="384" x2="384" y1="1156" y2="1154"/>
            <line clip-path="url(#clipPath2)" fill="none" x1="404" x2="404" y1="19" y2="21"/>
            <line clip-path="url(#clipPath2)" fill="none" x1="404" x2="404" y1="1156" y2="1154"/>
            <line clip-path="url(#clipPath2)" fill="none" x1="424" x2="424" y1="17" y2="21"/>
            <line clip-path="url(#clipPath2)" fill="none" x1="424" x2="424" y1="1158" y2="1154"/>
            <text x="410" font-size="10" y="14" clip-path="url(#clipPath2)" stroke="none" xml:space="preserve">0.0040</text>
            <text x="410" font-size="10" y="1169" clip-path="url(#clipPath2)" stroke="none" xml:space="preserve">0.0040</text>
            <line clip-path="url(#clipPath2)" fill="none" x1="444" x2="444" y1="19" y2="21"/>
            <line clip-path="url(#clipPath2)" fill="none" x1="444" x2="444" y1="1156" y2="1154"/>
            <line clip-path="url(#clipPath2)" fill="none" x1="464" x2="464" y1="19" y2="21"/>
            <line clip-path="url(#clipPath2)" fill="none" x1="464" x2="464" y1="1156" y2="1154"/>
            <line clip-path="url(#clipPath2)" fill="none" x1="483" x2="483" y1="19" y2="21"/>
            <line clip-path="url(#clipPath2)" fill="none" x1="483" x2="483" y1="1156" y2="1154"/>
            <line clip-path="url(#clipPath2)" fill="none" x1="503" x2="503" y1="19" y2="21"/>
            <line clip-path="url(#clipPath2)" fill="none" x1="503" x2="503" y1="1156" y2="1154"/>
            <line clip-path="url(#clipPath2)" fill="none" x1="523" x2="523" y1="17" y2="21"/>
            <line clip-path="url(#clipPath2)" fill="none" x1="523" x2="523" y1="1158" y2="1154"/>
            <text x="509" font-size="10" y="14" clip-path="url(#clipPath2)" stroke="none" xml:space="preserve">0.0050</text>
            <text x="509" font-size="10" y="1169" clip-path="url(#clipPath2)" stroke="none" xml:space="preserve">0.0050</text>
            <line clip-path="url(#clipPath2)" fill="none" x1="543" x2="543" y1="19" y2="21"/>
            <line clip-path="url(#clipPath2)" fill="none" x1="543" x2="543" y1="1156" y2="1154"/>
            <line clip-path="url(#clipPath2)" fill="none" x1="562" x2="562" y1="19" y2="21"/>
            <line clip-path="url(#clipPath2)" fill="none" x1="562" x2="562" y1="1156" y2="1154"/>
            <line clip-path="url(#clipPath2)" fill="none" x1="582" x2="582" y1="19" y2="21"/>
            <line clip-path="url(#clipPath2)" fill="none" x1="582" x2="582" y1="1156" y2="1154"/>
            <line clip-path="url(#clipPath2)" fill="none" x1="602" x2="602" y1="19" y2="21"/>
            <line clip-path="url(#clipPath2)" fill="none" x1="602" x2="602" y1="1156" y2="1154"/>
            <line clip-path="url(#clipPath2)" fill="none" x1="622" x2="622" y1="17" y2="21"/>
            <line clip-path="url(#clipPath2)" fill="none" x1="622" x2="622" y1="1158" y2="1154"/>
            <text x="608" font-size="10" y="14" clip-path="url(#clipPath2)" stroke="none" xml:space="preserve">0.0060</text>
            <text x="608" font-size="10" y="1169" clip-path="url(#clipPath2)" stroke="none" xml:space="preserve">0.0060</text>
            <line clip-path="url(#clipPath2)" fill="none" x1="642" x2="642" y1="19" y2="21"/>
            <line clip-path="url(#clipPath2)" fill="none" x1="642" x2="642" y1="1156" y2="1154"/>
            <line clip-path="url(#clipPath2)" fill="none" x1="661" x2="661" y1="19" y2="21"/>
            <line clip-path="url(#clipPath2)" fill="none" x1="661" x2="661" y1="1156" y2="1154"/>
            <line clip-path="url(#clipPath2)" fill="none" x1="681" x2="681" y1="19" y2="21"/>
            <line clip-path="url(#clipPath2)" fill="none" x1="681" x2="681" y1="1156" y2="1154"/>
            <line clip-path="url(#clipPath2)" fill="none" x1="701" x2="701" y1="19" y2="21"/>
            <line clip-path="url(#clipPath2)" fill="none" x1="701" x2="701" y1="1156" y2="1154"/>
            <line clip-path="url(#clipPath2)" fill="none" x1="721" x2="721" y1="17" y2="21"/>
            <line clip-path="url(#clipPath2)" fill="none" x1="721" x2="721" y1="1158" y2="1154"/>
            <text x="707" font-size="10" y="14" clip-path="url(#clipPath2)" stroke="none" xml:space="preserve">0.0070</text>
            <text x="707" font-size="10" y="1169" clip-path="url(#clipPath2)" stroke="none" xml:space="preserve">0.0070</text>
            <line clip-path="url(#clipPath2)" fill="none" x1="740" x2="740" y1="19" y2="21"/>
            <line clip-path="url(#clipPath2)" fill="none" x1="740" x2="740" y1="1156" y2="1154"/>
            <line clip-path="url(#clipPath2)" fill="none" x1="760" x2="760" y1="19" y2="21"/>
            <line clip-path="url(#clipPath2)" fill="none" x1="760" x2="760" y1="1156" y2="1154"/>
            <line clip-path="url(#clipPath2)" fill="none" x1="780" x2="780" y1="19" y2="21"/>
            <line clip-path="url(#clipPath2)" fill="none" x1="780" x2="780" y1="1156" y2="1154"/>
            <line clip-path="url(#clipPath2)" fill="none" x1="800" x2="800" y1="19" y2="21"/>
            <line clip-path="url(#clipPath2)" fill="none" x1="800" x2="800" y1="1156" y2="1154"/>
            <line clip-path="url(#clipPath2)" fill="none" x1="820" x2="820" y1="17" y2="21"/>
            <line clip-path="url(#clipPath2)" fill="none" x1="820" x2="820" y1="1158" y2="1154"/>
            <text x="806" font-size="10" y="14" clip-path="url(#clipPath2)" stroke="none" xml:space="preserve">0.0080</text>
            <text x="806" font-size="10" y="1169" clip-path="url(#clipPath2)" stroke="none" xml:space="preserve">0.0080</text>
            <line clip-path="url(#clipPath2)" fill="none" x1="839" x2="839" y1="19" y2="21"/>
            <line clip-path="url(#clipPath2)" fill="none" x1="839" x2="839" y1="1156" y2="1154"/>
            <line clip-path="url(#clipPath2)" fill="none" x1="859" x2="859" y1="19" y2="21"/>
            <line clip-path="url(#clipPath2)" fill="none" x1="859" x2="859" y1="1156" y2="1154"/>
            <line clip-path="url(#clipPath2)" fill="none" x1="879" x2="879" y1="19" y2="21"/>
            <line clip-path="url(#clipPath2)" fill="none" x1="879" x2="879" y1="1156" y2="1154"/>
            <line clip-path="url(#clipPath2)" fill="none" x1="899" x2="899" y1="19" y2="21"/>
            <line clip-path="url(#clipPath2)" fill="none" x1="899" x2="899" y1="1156" y2="1154"/>
            <line clip-path="url(#clipPath2)" fill="none" x1="918" x2="918" y1="17" y2="21"/>
            <line clip-path="url(#clipPath2)" fill="none" x1="918" x2="918" y1="1158" y2="1154"/>
            <text x="904" font-size="10" y="14" clip-path="url(#clipPath2)" stroke="none" xml:space="preserve">0.0090</text>
            <text x="904" font-size="10" y="1169" clip-path="url(#clipPath2)" stroke="none" xml:space="preserve">0.0090</text>
            <line clip-path="url(#clipPath2)" fill="none" x1="938" x2="938" y1="19" y2="21"/>
            <line clip-path="url(#clipPath2)" fill="none" x1="938" x2="938" y1="1156" y2="1154"/>
            <line clip-path="url(#clipPath2)" fill="none" x1="958" x2="958" y1="19" y2="21"/>
            <line clip-path="url(#clipPath2)" fill="none" x1="958" x2="958" y1="1156" y2="1154"/>
            <line clip-path="url(#clipPath2)" fill="none" x1="978" x2="978" y1="19" y2="21"/>
            <line clip-path="url(#clipPath2)" fill="none" x1="978" x2="978" y1="1156" y2="1154"/>
            <line clip-path="url(#clipPath2)" fill="none" x1="998" x2="998" y1="19" y2="21"/>
            <line clip-path="url(#clipPath2)" fill="none" x1="998" x2="998" y1="1156" y2="1154"/>
            <line clip-path="url(#clipPath2)" fill="none" x1="1017" x2="1017" y1="17" y2="21"/>
            <line clip-path="url(#clipPath2)" fill="none" x1="1017" x2="1017" y1="1158" y2="1154"/>
            <text x="1003" font-size="10" y="14" clip-path="url(#clipPath2)" stroke="none" xml:space="preserve">0.0100</text>
            <text x="1003" font-size="10" y="1169" clip-path="url(#clipPath2)" stroke="none" xml:space="preserve">0.0100</text>
            <line clip-path="url(#clipPath2)" fill="none" x1="1037" x2="1037" y1="19" y2="21"/>
            <line clip-path="url(#clipPath2)" fill="none" x1="1037" x2="1037" y1="1156" y2="1154"/>
            <line clip-path="url(#clipPath2)" fill="none" x1="1057" x2="1057" y1="19" y2="21"/>
            <line clip-path="url(#clipPath2)" fill="none" x1="1057" x2="1057" y1="1156" y2="1154"/>
            <line clip-path="url(#clipPath2)" fill="none" x1="1077" x2="1077" y1="19" y2="21"/>
            <line clip-path="url(#clipPath2)" fill="none" x1="1077" x2="1077" y1="1156" y2="1154"/>
            <line clip-path="url(#clipPath2)" fill="none" x1="1096" x2="1096" y1="19" y2="21"/>
            <line clip-path="url(#clipPath2)" fill="none" x1="1096" x2="1096" y1="1156" y2="1154"/>
            <line clip-path="url(#clipPath2)" fill="none" x1="1116" x2="1116" y1="17" y2="21"/>
            <line clip-path="url(#clipPath2)" fill="none" x1="1116" x2="1116" y1="1158" y2="1154"/>
            <text x="1102" font-size="10" y="14" clip-path="url(#clipPath2)" stroke="none" xml:space="preserve">0.0110</text>
            <text x="1102" font-size="10" y="1169" clip-path="url(#clipPath2)" stroke="none" xml:space="preserve">0.0110</text>
            <line clip-path="url(#clipPath2)" fill="none" x1="1136" x2="1136" y1="19" y2="21"/>
            <line clip-path="url(#clipPath2)" fill="none" x1="1136" x2="1136" y1="1156" y2="1154"/>
            <line clip-path="url(#clipPath2)" fill="none" x1="1156" x2="1156" y1="19" y2="21"/>
            <line clip-path="url(#clipPath2)" fill="none" x1="1156" x2="1156" y1="1156" y2="1154"/>
            <line clip-path="url(#clipPath2)" fill="none" x1="1175" x2="1175" y1="19" y2="21"/>
            <line clip-path="url(#clipPath2)" fill="none" x1="1175" x2="1175" y1="1156" y2="1154"/>
            <line clip-path="url(#clipPath2)" fill="none" x1="1195" x2="1195" y1="19" y2="21"/>
            <line clip-path="url(#clipPath2)" fill="none" x1="1195" x2="1195" y1="1156" y2="1154"/>
            <line clip-path="url(#clipPath2)" fill="none" x1="1215" x2="1215" y1="17" y2="21"/>
            <line clip-path="url(#clipPath2)" fill="none" x1="1215" x2="1215" y1="1158" y2="1154"/>
            <text x="1201" font-size="10" y="14" clip-path="url(#clipPath2)" stroke="none" xml:space="preserve">0.0120</text>
            <text x="1201" font-size="10" y="1169" clip-path="url(#clipPath2)" stroke="none" xml:space="preserve">0.0120</text>
            <line clip-path="url(#clipPath2)" fill="none" x1="1235" x2="1235" y1="19" y2="21"/>
            <line clip-path="url(#clipPath2)" fill="none" x1="1235" x2="1235" y1="1156" y2="1154"/>
            <line clip-path="url(#clipPath2)" fill="none" x1="1255" x2="1255" y1="19" y2="21"/>
            <line clip-path="url(#clipPath2)" fill="none" x1="1255" x2="1255" y1="1156" y2="1154"/>
            <line clip-path="url(#clipPath2)" fill="none" x1="1274" x2="1274" y1="19" y2="21"/>
            <line clip-path="url(#clipPath2)" fill="none" x1="1274" x2="1274" y1="1156" y2="1154"/>
            <line clip-path="url(#clipPath2)" fill="none" x1="1294" x2="1294" y1="19" y2="21"/>
            <line clip-path="url(#clipPath2)" fill="none" x1="1294" x2="1294" y1="1156" y2="1154"/>
            <line clip-path="url(#clipPath2)" fill="none" x1="1314" x2="1314" y1="17" y2="21"/>
            <line clip-path="url(#clipPath2)" fill="none" x1="1314" x2="1314" y1="1158" y2="1154"/>
            <text x="1300" font-size="10" y="14" clip-path="url(#clipPath2)" stroke="none" xml:space="preserve">0.0130</text>
            <text x="1300" font-size="10" y="1169" clip-path="url(#clipPath2)" stroke="none" xml:space="preserve">0.0130</text>
            <line clip-path="url(#clipPath2)" fill="none" x1="1334" x2="1334" y1="19" y2="21"/>
            <line clip-path="url(#clipPath2)" fill="none" x1="1334" x2="1334" y1="1156" y2="1154"/>
            <line clip-path="url(#clipPath2)" fill="none" x1="1353" x2="1353" y1="19" y2="21"/>
            <line clip-path="url(#clipPath2)" fill="none" x1="1353" x2="1353" y1="1156" y2="1154"/>
            <line clip-path="url(#clipPath2)" fill="none" x1="1373" x2="1373" y1="19" y2="21"/>
            <line clip-path="url(#clipPath2)" fill="none" x1="1373" x2="1373" y1="1156" y2="1154"/>
            <line clip-path="url(#clipPath2)" fill="none" x1="1393" x2="1393" y1="19" y2="21"/>
            <line clip-path="url(#clipPath2)" fill="none" x1="1393" x2="1393" y1="1156" y2="1154"/>
            <line clip-path="url(#clipPath2)" fill="none" x1="1413" x2="1413" y1="17" y2="21"/>
            <line clip-path="url(#clipPath2)" fill="none" x1="1413" x2="1413" y1="1158" y2="1154"/>
            <text x="1399" font-size="10" y="14" clip-path="url(#clipPath2)" stroke="none" xml:space="preserve">0.0140</text>
            <text x="1399" font-size="10" y="1169" clip-path="url(#clipPath2)" stroke="none" xml:space="preserve">0.0140</text>
            <line clip-path="url(#clipPath2)" fill="none" x1="1433" x2="1433" y1="19" y2="21"/>
            <line clip-path="url(#clipPath2)" fill="none" x1="1433" x2="1433" y1="1156" y2="1154"/>
            <line clip-path="url(#clipPath2)" fill="none" x1="1452" x2="1452" y1="19" y2="21"/>
            <line clip-path="url(#clipPath2)" fill="none" x1="1452" x2="1452" y1="1156" y2="1154"/>
            <line clip-path="url(#clipPath2)" fill="none" x1="1472" x2="1472" y1="19" y2="21"/>
            <line clip-path="url(#clipPath2)" fill="none" x1="1472" x2="1472" y1="1156" y2="1154"/>
            <line clip-path="url(#clipPath2)" fill="none" x1="1492" x2="1492" y1="19" y2="21"/>
            <line clip-path="url(#clipPath2)" fill="none" x1="1492" x2="1492" y1="1156" y2="1154"/>
            <line clip-path="url(#clipPath2)" fill="none" x1="1512" x2="1512" y1="17" y2="21"/>
            <line clip-path="url(#clipPath2)" fill="none" x1="1512" x2="1512" y1="1158" y2="1154"/>
            <text x="1498" font-size="10" y="14" clip-path="url(#clipPath2)" stroke="none" xml:space="preserve">0.0150</text>
            <text x="1498" font-size="10" y="1169" clip-path="url(#clipPath2)" stroke="none" xml:space="preserve">0.0150</text>
            <line clip-path="url(#clipPath2)" fill="none" x1="1531" x2="1531" y1="19" y2="21"/>
            <line clip-path="url(#clipPath2)" fill="none" x1="1531" x2="1531" y1="1156" y2="1154"/>
            <line clip-path="url(#clipPath2)" fill="none" x1="1551" x2="1551" y1="19" y2="21"/>
            <line clip-path="url(#clipPath2)" fill="none" x1="1551" x2="1551" y1="1156" y2="1154"/>
            <line clip-path="url(#clipPath2)" fill="none" x1="1571" x2="1571" y1="19" y2="21"/>
            <line clip-path="url(#clipPath2)" fill="none" x1="1571" x2="1571" y1="1156" y2="1154"/>
            <line clip-path="url(#clipPath2)" fill="none" x1="1591" x2="1591" y1="19" y2="21"/>
            <line clip-path="url(#clipPath2)" fill="none" x1="1591" x2="1591" y1="1156" y2="1154"/>
            <line clip-path="url(#clipPath2)" fill="none" x1="1611" x2="1611" y1="17" y2="21"/>
            <line clip-path="url(#clipPath2)" fill="none" x1="1611" x2="1611" y1="1158" y2="1154"/>
            <text x="1597" font-size="10" y="14" clip-path="url(#clipPath2)" stroke="none" xml:space="preserve">0.0160</text>
            <text x="1597" font-size="10" y="1169" clip-path="url(#clipPath2)" stroke="none" xml:space="preserve">0.0160</text>
            <line clip-path="url(#clipPath2)" fill="none" x1="1630" x2="1630" y1="19" y2="21"/>
            <line clip-path="url(#clipPath2)" fill="none" x1="1630" x2="1630" y1="1156" y2="1154"/>
            <line clip-path="url(#clipPath2)" fill="none" x1="1650" x2="1650" y1="19" y2="21"/>
            <line clip-path="url(#clipPath2)" fill="none" x1="1650" x2="1650" y1="1156" y2="1154"/>
            <line clip-path="url(#clipPath2)" fill="none" x1="1670" x2="1670" y1="19" y2="21"/>
            <line clip-path="url(#clipPath2)" fill="none" x1="1670" x2="1670" y1="1156" y2="1154"/>
            <line clip-path="url(#clipPath2)" fill="none" x1="1690" x2="1690" y1="19" y2="21"/>
            <line clip-path="url(#clipPath2)" fill="none" x1="1690" x2="1690" y1="1156" y2="1154"/>
            <line clip-path="url(#clipPath2)" fill="none" x1="1709" x2="1709" y1="17" y2="21"/>
            <line clip-path="url(#clipPath2)" fill="none" x1="1709" x2="1709" y1="1158" y2="1154"/>
            <text x="1695" font-size="10" y="14" clip-path="url(#clipPath2)" stroke="none" xml:space="preserve">0.0170</text>
            <text x="1695" font-size="10" y="1169" clip-path="url(#clipPath2)" stroke="none" xml:space="preserve">0.0170</text>
            <line clip-path="url(#clipPath2)" fill="none" x1="1729" x2="1729" y1="19" y2="21"/>
            <line clip-path="url(#clipPath2)" fill="none" x1="1729" x2="1729" y1="1156" y2="1154"/>
            <line clip-path="url(#clipPath2)" fill="none" x1="1749" x2="1749" y1="19" y2="21"/>
            <line clip-path="url(#clipPath2)" fill="none" x1="1749" x2="1749" y1="1156" y2="1154"/>
            <line clip-path="url(#clipPath2)" fill="none" x1="1769" x2="1769" y1="19" y2="21"/>
            <line clip-path="url(#clipPath2)" fill="none" x1="1769" x2="1769" y1="1156" y2="1154"/>
            <line clip-path="url(#clipPath2)" fill="none" x1="1789" x2="1789" y1="19" y2="21"/>
            <line clip-path="url(#clipPath2)" fill="none" x1="1789" x2="1789" y1="1156" y2="1154"/>
            <line clip-path="url(#clipPath2)" fill="none" x1="1808" x2="1808" y1="17" y2="21"/>
            <line clip-path="url(#clipPath2)" fill="none" x1="1808" x2="1808" y1="1158" y2="1154"/>
            <text x="1794" font-size="10" y="14" clip-path="url(#clipPath2)" stroke="none" xml:space="preserve">0.0180</text>
            <text x="1794" font-size="10" y="1169" clip-path="url(#clipPath2)" stroke="none" xml:space="preserve">0.0180</text>
            <line clip-path="url(#clipPath2)" fill="none" x1="1828" x2="1828" y1="19" y2="21"/>
            <line clip-path="url(#clipPath2)" fill="none" x1="1828" x2="1828" y1="1156" y2="1154"/>
            <line clip-path="url(#clipPath2)" fill="none" x1="1848" x2="1848" y1="19" y2="21"/>
            <line clip-path="url(#clipPath2)" fill="none" x1="1848" x2="1848" y1="1156" y2="1154"/>
            <line clip-path="url(#clipPath2)" fill="none" x1="1868" x2="1868" y1="19" y2="21"/>
            <line clip-path="url(#clipPath2)" fill="none" x1="1868" x2="1868" y1="1156" y2="1154"/>
            <line clip-path="url(#clipPath2)" fill="none" x1="1887" x2="1887" y1="19" y2="21"/>
            <line clip-path="url(#clipPath2)" fill="none" x1="1887" x2="1887" y1="1156" y2="1154"/>
            <line clip-path="url(#clipPath2)" fill="none" x1="1907" x2="1907" y1="17" y2="21"/>
            <line clip-path="url(#clipPath2)" fill="none" x1="1907" x2="1907" y1="1158" y2="1154"/>
            <text x="1893" font-size="10" y="14" clip-path="url(#clipPath2)" stroke="none" xml:space="preserve">0.0190</text>
            <text x="1893" font-size="10" y="1169" clip-path="url(#clipPath2)" stroke="none" xml:space="preserve">0.0190</text>
            <line clip-path="url(#clipPath2)" fill="none" x1="1927" x2="1927" y1="19" y2="21"/>
            <line clip-path="url(#clipPath2)" fill="none" x1="1927" x2="1927" y1="1156" y2="1154"/>
            <line clip-path="url(#clipPath2)" fill="none" x1="1947" x2="1947" y1="19" y2="21"/>
            <line clip-path="url(#clipPath2)" fill="none" x1="1947" x2="1947" y1="1156" y2="1154"/>
            <line clip-path="url(#clipPath2)" fill="none" x1="1967" x2="1967" y1="19" y2="21"/>
            <line clip-path="url(#clipPath2)" fill="none" x1="1967" x2="1967" y1="1156" y2="1154"/>
            <line clip-path="url(#clipPath2)" fill="none" x1="27" x2="27" y1="23" y2="1152"/>
            <line clip-path="url(#clipPath2)" fill="none" x1="1969" x2="1969" y1="23" y2="1152"/>
            <line clip-path="url(#clipPath2)" fill="none" x1="23" x2="27" y1="1152" y2="1152"/>
            <line clip-path="url(#clipPath2)" fill="none" x1="1973" x2="1969" y1="1152" y2="1152"/>
            <text x="17" font-size="10" y="1156" clip-path="url(#clipPath2)" stroke="none" xml:space="preserve">0</text>
            <text x="1976" font-size="10" y="1156" clip-path="url(#clipPath2)" stroke="none" xml:space="preserve">0</text>
            <line clip-path="url(#clipPath2)" fill="none" x1="25" x2="27" y1="1106" y2="1106"/>
            <line clip-path="url(#clipPath2)" fill="none" x1="1971" x2="1969" y1="1106" y2="1106"/>
            <line clip-path="url(#clipPath2)" fill="none" x1="23" x2="27" y1="1061" y2="1061"/>
            <line clip-path="url(#clipPath2)" fill="none" x1="1973" x2="1969" y1="1061" y2="1061"/>
            <text x="7" font-size="10" y="1065" clip-path="url(#clipPath2)" stroke="none" xml:space="preserve">0.2</text>
            <text x="1976" font-size="10" y="1065" clip-path="url(#clipPath2)" stroke="none" xml:space="preserve">0.2</text>
            <line clip-path="url(#clipPath2)" fill="none" x1="25" x2="27" y1="1016" y2="1016"/>
            <line clip-path="url(#clipPath2)" fill="none" x1="1971" x2="1969" y1="1016" y2="1016"/>
            <line clip-path="url(#clipPath2)" fill="none" x1="23" x2="27" y1="971" y2="971"/>
            <line clip-path="url(#clipPath2)" fill="none" x1="1973" x2="1969" y1="971" y2="971"/>
            <text x="7" font-size="10" y="975" clip-path="url(#clipPath2)" stroke="none" xml:space="preserve">0.4</text>
            <text x="1976" font-size="10" y="975" clip-path="url(#clipPath2)" stroke="none" xml:space="preserve">0.4</text>
            <line clip-path="url(#clipPath2)" fill="none" x1="25" x2="27" y1="926" y2="926"/>
            <line clip-path="url(#clipPath2)" fill="none" x1="1971" x2="1969" y1="926" y2="926"/>
            <line clip-path="url(#clipPath2)" fill="none" x1="23" x2="27" y1="881" y2="881"/>
            <line clip-path="url(#clipPath2)" fill="none" x1="1973" x2="1969" y1="881" y2="881"/>
            <text x="7" font-size="10" y="885" clip-path="url(#clipPath2)" stroke="none" xml:space="preserve">0.6</text>
            <text x="1976" font-size="10" y="885" clip-path="url(#clipPath2)" stroke="none" xml:space="preserve">0.6</text>
            <line clip-path="url(#clipPath2)" fill="none" x1="25" x2="27" y1="835" y2="835"/>
            <line clip-path="url(#clipPath2)" fill="none" x1="1971" x2="1969" y1="835" y2="835"/>
            <line clip-path="url(#clipPath2)" fill="none" x1="23" x2="27" y1="790" y2="790"/>
            <line clip-path="url(#clipPath2)" fill="none" x1="1973" x2="1969" y1="790" y2="790"/>
            <text x="7" font-size="10" y="794" clip-path="url(#clipPath2)" stroke="none" xml:space="preserve">0.8</text>
            <text x="1976" font-size="10" y="794" clip-path="url(#clipPath2)" stroke="none" xml:space="preserve">0.8</text>
            <line clip-path="url(#clipPath2)" fill="none" x1="25" x2="27" y1="745" y2="745"/>
            <line clip-path="url(#clipPath2)" fill="none" x1="1971" x2="1969" y1="745" y2="745"/>
            <line clip-path="url(#clipPath2)" fill="none" x1="23" x2="27" y1="700" y2="700"/>
            <line clip-path="url(#clipPath2)" fill="none" x1="1973" x2="1969" y1="700" y2="700"/>
            <text x="7" font-size="10" y="704" clip-path="url(#clipPath2)" stroke="none" xml:space="preserve">1.0</text>
            <text x="1976" font-size="10" y="704" clip-path="url(#clipPath2)" stroke="none" xml:space="preserve">1.0</text>
            <line clip-path="url(#clipPath2)" fill="none" x1="25" x2="27" y1="655" y2="655"/>
            <line clip-path="url(#clipPath2)" fill="none" x1="1971" x2="1969" y1="655" y2="655"/>
            <line clip-path="url(#clipPath2)" fill="none" x1="23" x2="27" y1="610" y2="610"/>
            <line clip-path="url(#clipPath2)" fill="none" x1="1973" x2="1969" y1="610" y2="610"/>
            <text x="7" font-size="10" y="614" clip-path="url(#clipPath2)" stroke="none" xml:space="preserve">1.2</text>
            <text x="1976" font-size="10" y="614" clip-path="url(#clipPath2)" stroke="none" xml:space="preserve">1.2</text>
            <line clip-path="url(#clipPath2)" fill="none" x1="25" x2="27" y1="564" y2="564"/>
            <line clip-path="url(#clipPath2)" fill="none" x1="1971" x2="1969" y1="564" y2="564"/>
            <line clip-path="url(#clipPath2)" fill="none" x1="23" x2="27" y1="519" y2="519"/>
            <line clip-path="url(#clipPath2)" fill="none" x1="1973" x2="1969" y1="519" y2="519"/>
            <text x="7" font-size="10" y="523" clip-path="url(#clipPath2)" stroke="none" xml:space="preserve">1.4</text>
            <text x="1976" font-size="10" y="523" clip-path="url(#clipPath2)" stroke="none" xml:space="preserve">1.4</text>
            <line clip-path="url(#clipPath2)" fill="none" x1="25" x2="27" y1="474" y2="474"/>
            <line clip-path="url(#clipPath2)" fill="none" x1="1971" x2="1969" y1="474" y2="474"/>
            <line clip-path="url(#clipPath2)" fill="none" x1="23" x2="27" y1="429" y2="429"/>
            <line clip-path="url(#clipPath2)" fill="none" x1="1973" x2="1969" y1="429" y2="429"/>
            <text x="7" font-size="10" y="433" clip-path="url(#clipPath2)" stroke="none" xml:space="preserve">1.6</text>
            <text x="1976" font-size="10" y="433" clip-path="url(#clipPath2)" stroke="none" xml:space="preserve">1.6</text>
            <line clip-path="url(#clipPath2)" fill="none" x1="25" x2="27" y1="384" y2="384"/>
            <line clip-path="url(#clipPath2)" fill="none" x1="1971" x2="1969" y1="384" y2="384"/>
            <line clip-path="url(#clipPath2)" fill="none" x1="23" x2="27" y1="339" y2="339"/>
            <line clip-path="url(#clipPath2)" fill="none" x1="1973" x2="1969" y1="339" y2="339"/>
            <text x="7" font-size="10" y="343" clip-path="url(#clipPath2)" stroke="none" xml:space="preserve">1.8</text>
            <text x="1976" font-size="10" y="343" clip-path="url(#clipPath2)" stroke="none" xml:space="preserve">1.8</text>
            <line clip-path="url(#clipPath2)" fill="none" x1="25" x2="27" y1="293" y2="293"/>
            <line clip-path="url(#clipPath2)" fill="none" x1="1971" x2="1969" y1="293" y2="293"/>
            <line clip-path="url(#clipPath2)" fill="none" x1="23" x2="27" y1="248" y2="248"/>
            <line clip-path="url(#clipPath2)" fill="none" x1="1973" x2="1969" y1="248" y2="248"/>
            <text x="7" font-size="10" y="252" clip-path="url(#clipPath2)" stroke="none" xml:space="preserve">2.0</text>
            <text x="1976" font-size="10" y="252" clip-path="url(#clipPath2)" stroke="none" xml:space="preserve">2.0</text>
            <line clip-path="url(#clipPath2)" fill="none" x1="25" x2="27" y1="203" y2="203"/>
            <line clip-path="url(#clipPath2)" fill="none" x1="1971" x2="1969" y1="203" y2="203"/>
            <line clip-path="url(#clipPath2)" fill="none" x1="23" x2="27" y1="158" y2="158"/>
            <line clip-path="url(#clipPath2)" fill="none" x1="1973" x2="1969" y1="158" y2="158"/>
            <text x="7" font-size="10" y="162" clip-path="url(#clipPath2)" stroke="none" xml:space="preserve">2.2</text>
            <text x="1976" font-size="10" y="162" clip-path="url(#clipPath2)" stroke="none" xml:space="preserve">2.2</text>
            <line clip-path="url(#clipPath2)" fill="none" x1="25" x2="27" y1="113" y2="113"/>
            <line clip-path="url(#clipPath2)" fill="none" x1="1971" x2="1969" y1="113" y2="113"/>
            <line clip-path="url(#clipPath2)" fill="none" x1="23" x2="27" y1="68" y2="68"/>
            <line clip-path="url(#clipPath2)" fill="none" x1="1973" x2="1969" y1="68" y2="68"/>
            <text x="7" font-size="10" y="72" clip-path="url(#clipPath2)" stroke="none" xml:space="preserve">2.4</text>
            <text x="1976" font-size="10" y="72" clip-path="url(#clipPath2)" stroke="none" xml:space="preserve">2.4</text>
            <line clip-path="url(#clipPath2)" fill="none" x1="25" x2="27" y1="23" y2="23"/>
            <line clip-path="url(#clipPath2)" fill="none" x1="1971" x2="1969" y1="23" y2="23"/>
        </g>
    </g>
</svg>
