<?xml version="1.0" encoding="UTF-8"?><svg xmlns="http://www.w3.org/2000/svg" xmlns:xlink="http://www.w3.org/1999/xlink" stroke-dasharray="none" shape-rendering="auto" font-family="'Dialog'" width="768" text-rendering="auto" fill-opacity="1" contentScriptType="text/ecmascript" color-interpolation="auto" color-rendering="auto" preserveAspectRatio="xMidYMid meet" font-size="12" fill="black" stroke="black" image-rendering="auto" stroke-miterlimit="10" zoomAndPan="magnify" version="1.0" stroke-linecap="square" stroke-linejoin="miter" contentStyleType="text/css" font-style="normal" height="576" stroke-width="1" stroke-dashoffset="0" font-weight="normal" stroke-opacity="1">
    <!--Generated by the Batik Graphics2D SVG Generator-->
    <defs id="genericDefs"/>
    <g>
        <defs id="defs1">
            <clipPath clipPathUnits="userSpaceOnUse" id="clipPath1">
                <path d="M31 22 L737 22 L737 554 L31 554 L31 22 Z"/>
            </clipPath>
            <clipPath clipPathUnits="userSpaceOnUse" id="clipPath2">
                <path d="M-1 -1 L769 -1 L769 577 L-1 577 L-1 -1 Z"/>
            </clipPath>
        </defs>
        <g font-size="14" fill="white" text-rendering="geometricPrecision" font-family="'Ubuntu'" stroke-linejoin="round" stroke="white" stroke-width="0" stroke-miterlimit="0">
            <rect x="32" y="23" clip-path="url(#clipPath1)" width="704" height="530" stroke="none"/>
        </g>
        <g stroke-linecap="butt" font-size="14" fill="rgb(204,204,204)" text-rendering="geometricPrecision" font-family="'Ubuntu'" stroke-dasharray="3,3" stroke="rgb(204,204,204)">
            <line clip-path="url(#clipPath1)" fill="none" x1="32" x2="32" y1="23" y2="553"/>
            <line clip-path="url(#clipPath1)" fill="none" x1="110" x2="110" y1="23" y2="553"/>
            <line clip-path="url(#clipPath1)" fill="none" x1="189" x2="189" y1="23" y2="553"/>
            <line clip-path="url(#clipPath1)" fill="none" x1="267" x2="267" y1="23" y2="553"/>
            <line clip-path="url(#clipPath1)" fill="none" x1="346" x2="346" y1="23" y2="553"/>
            <line clip-path="url(#clipPath1)" fill="none" x1="424" x2="424" y1="23" y2="553"/>
            <line clip-path="url(#clipPath1)" fill="none" x1="503" x2="503" y1="23" y2="553"/>
            <line clip-path="url(#clipPath1)" fill="none" x1="581" x2="581" y1="23" y2="553"/>
            <line clip-path="url(#clipPath1)" fill="none" x1="660" x2="660" y1="23" y2="553"/>
            <line clip-path="url(#clipPath1)" fill="none" x1="32" x2="736" y1="553" y2="553"/>
            <line clip-path="url(#clipPath1)" fill="none" x1="32" x2="736" y1="470" y2="470"/>
            <line clip-path="url(#clipPath1)" fill="none" x1="32" x2="736" y1="387" y2="387"/>
            <line clip-path="url(#clipPath1)" fill="none" x1="32" x2="736" y1="304" y2="304"/>
            <line clip-path="url(#clipPath1)" fill="none" x1="32" x2="736" y1="221" y2="221"/>
            <line clip-path="url(#clipPath1)" fill="none" x1="32" x2="736" y1="138" y2="138"/>
            <line clip-path="url(#clipPath1)" fill="none" x1="32" x2="736" y1="56" y2="56"/>
            <rect x="244" y="538" clip-path="url(#clipPath1)" fill="rgb(0,0,139)" width="5" height="5" stroke="none"/>
            <line clip-path="url(#clipPath1)" fill="none" x1="246" x2="278" y1="540" y2="528" stroke-dasharray="none" stroke="rgb(0,0,139)"/>
            <rect x="276" y="526" clip-path="url(#clipPath1)" fill="rgb(0,0,139)" width="5" stroke-dasharray="none" height="5" stroke="none"/>
            <line clip-path="url(#clipPath1)" fill="none" x1="278" x2="279" y1="528" y2="515" stroke-dasharray="none" stroke="rgb(0,0,139)"/>
            <rect x="277" y="513" clip-path="url(#clipPath1)" fill="rgb(0,0,139)" width="5" stroke-dasharray="none" height="5" stroke="none"/>
            <line clip-path="url(#clipPath1)" fill="none" x1="279" x2="284" y1="515" y2="503" stroke-dasharray="none" stroke="rgb(0,0,139)"/>
            <rect x="282" y="501" clip-path="url(#clipPath1)" fill="rgb(0,0,139)" width="5" stroke-dasharray="none" height="5" stroke="none"/>
            <line clip-path="url(#clipPath1)" fill="none" x1="284" x2="286" y1="503" y2="490" stroke-dasharray="none" stroke="rgb(0,0,139)"/>
            <rect x="284" y="488" clip-path="url(#clipPath1)" fill="rgb(0,0,139)" width="5" stroke-dasharray="none" height="5" stroke="none"/>
            <line clip-path="url(#clipPath1)" fill="none" x1="286" x2="299" y1="490" y2="478" stroke-dasharray="none" stroke="rgb(0,0,139)"/>
            <rect x="297" y="476" clip-path="url(#clipPath1)" fill="rgb(0,0,139)" width="5" stroke-dasharray="none" height="5" stroke="none"/>
            <line clip-path="url(#clipPath1)" fill="none" x1="299" x2="317" y1="478" y2="466" stroke-dasharray="none" stroke="rgb(0,0,139)"/>
            <rect x="315" y="464" clip-path="url(#clipPath1)" fill="rgb(0,0,139)" width="5" stroke-dasharray="none" height="5" stroke="none"/>
            <line clip-path="url(#clipPath1)" fill="none" x1="317" x2="331" y1="466" y2="453" stroke-dasharray="none" stroke="rgb(0,0,139)"/>
            <rect x="329" y="451" clip-path="url(#clipPath1)" fill="rgb(0,0,139)" width="5" stroke-dasharray="none" height="5" stroke="none"/>
            <line clip-path="url(#clipPath1)" fill="none" x1="331" x2="338" y1="453" y2="441" stroke-dasharray="none" stroke="rgb(0,0,139)"/>
            <rect x="336" y="439" clip-path="url(#clipPath1)" fill="rgb(0,0,139)" width="5" stroke-dasharray="none" height="5" stroke="none"/>
            <line clip-path="url(#clipPath1)" fill="none" x1="338" x2="359" y1="441" y2="428" stroke-dasharray="none" stroke="rgb(0,0,139)"/>
            <rect x="357" y="426" clip-path="url(#clipPath1)" fill="rgb(0,0,139)" width="5" stroke-dasharray="none" height="5" stroke="none"/>
            <line clip-path="url(#clipPath1)" fill="none" x1="359" x2="368" y1="428" y2="416" stroke-dasharray="none" stroke="rgb(0,0,139)"/>
            <rect x="366" y="414" clip-path="url(#clipPath1)" fill="rgb(0,0,139)" width="5" stroke-dasharray="none" height="5" stroke="none"/>
            <line clip-path="url(#clipPath1)" fill="none" x1="368" x2="402" y1="416" y2="403" stroke-dasharray="none" stroke="rgb(0,0,139)"/>
            <rect x="400" y="401" clip-path="url(#clipPath1)" fill="rgb(0,0,139)" width="5" stroke-dasharray="none" height="5" stroke="none"/>
            <line clip-path="url(#clipPath1)" fill="none" x1="402" x2="405" y1="403" y2="391" stroke-dasharray="none" stroke="rgb(0,0,139)"/>
            <rect x="403" y="389" clip-path="url(#clipPath1)" fill="rgb(0,0,139)" width="5" stroke-dasharray="none" height="5" stroke="none"/>
            <line clip-path="url(#clipPath1)" fill="none" x1="405" x2="409" y1="391" y2="379" stroke-dasharray="none" stroke="rgb(0,0,139)"/>
            <rect x="407" y="377" clip-path="url(#clipPath1)" fill="rgb(0,0,139)" width="5" stroke-dasharray="none" height="5" stroke="none"/>
            <line clip-path="url(#clipPath1)" fill="none" x1="409" x2="420" y1="379" y2="366" stroke-dasharray="none" stroke="rgb(0,0,139)"/>
            <rect x="418" y="364" clip-path="url(#clipPath1)" fill="rgb(0,0,139)" width="5" stroke-dasharray="none" height="5" stroke="none"/>
            <line clip-path="url(#clipPath1)" fill="none" x1="420" x2="424" y1="366" y2="354" stroke-dasharray="none" stroke="rgb(0,0,139)"/>
            <rect x="422" y="352" clip-path="url(#clipPath1)" fill="rgb(0,0,139)" width="5" stroke-dasharray="none" height="5" stroke="none"/>
            <line clip-path="url(#clipPath1)" fill="none" x1="424" x2="575" y1="354" y2="341" stroke-dasharray="none" stroke="rgb(0,0,139)"/>
            <rect x="573" y="339" clip-path="url(#clipPath1)" fill="rgb(0,0,139)" width="5" stroke-dasharray="none" height="5" stroke="none"/>
            <line clip-path="url(#clipPath1)" fill="none" x1="575" x2="586" y1="341" y2="329" stroke-dasharray="none" stroke="rgb(0,0,139)"/>
            <rect x="584" y="327" clip-path="url(#clipPath1)" fill="rgb(0,0,139)" width="5" stroke-dasharray="none" height="5" stroke="none"/>
            <line clip-path="url(#clipPath1)" fill="none" x1="586" x2="596" y1="329" y2="316" stroke-dasharray="none" stroke="rgb(0,0,139)"/>
            <rect x="594" y="314" clip-path="url(#clipPath1)" fill="rgb(0,0,139)" width="5" stroke-dasharray="none" height="5" stroke="none"/>
            <line clip-path="url(#clipPath1)" fill="none" x1="596" x2="607" y1="316" y2="304" stroke-dasharray="none" stroke="rgb(0,0,139)"/>
            <rect x="605" y="302" clip-path="url(#clipPath1)" fill="rgb(0,0,139)" width="5" stroke-dasharray="none" height="5" stroke="none"/>
            <line clip-path="url(#clipPath1)" fill="none" x1="607" x2="609" y1="304" y2="292" stroke-dasharray="none" stroke="rgb(0,0,139)"/>
            <rect x="607" y="290" clip-path="url(#clipPath1)" fill="rgb(0,0,139)" width="5" stroke-dasharray="none" height="5" stroke="none"/>
            <line clip-path="url(#clipPath1)" fill="none" x1="609" x2="638" y1="292" y2="279" stroke-dasharray="none" stroke="rgb(0,0,139)"/>
            <rect x="636" y="277" clip-path="url(#clipPath1)" fill="rgb(0,0,139)" width="5" stroke-dasharray="none" height="5" stroke="none"/>
            <line clip-path="url(#clipPath1)" fill="none" x1="638" x2="643" y1="279" y2="267" stroke-dasharray="none" stroke="rgb(0,0,139)"/>
            <rect x="641" y="265" clip-path="url(#clipPath1)" fill="rgb(0,0,139)" width="5" stroke-dasharray="none" height="5" stroke="none"/>
            <line clip-path="url(#clipPath1)" fill="none" x1="643" x2="645" y1="267" y2="254" stroke-dasharray="none" stroke="rgb(0,0,139)"/>
            <rect x="643" y="252" clip-path="url(#clipPath1)" fill="rgb(0,0,139)" width="5" stroke-dasharray="none" height="5" stroke="none"/>
            <line clip-path="url(#clipPath1)" fill="none" x1="645" x2="675" y1="254" y2="242" stroke-dasharray="none" stroke="rgb(0,0,139)"/>
            <rect x="673" y="240" clip-path="url(#clipPath1)" fill="rgb(0,0,139)" width="5" stroke-dasharray="none" height="5" stroke="none"/>
            <line clip-path="url(#clipPath1)" fill="none" x1="675" x2="677" y1="242" y2="230" stroke-dasharray="none" stroke="rgb(0,0,139)"/>
            <rect x="675" y="228" clip-path="url(#clipPath1)" fill="rgb(0,0,139)" width="5" stroke-dasharray="none" height="5" stroke="none"/>
            <line clip-path="url(#clipPath1)" fill="none" x1="677" x2="681" y1="230" y2="217" stroke-dasharray="none" stroke="rgb(0,0,139)"/>
            <rect x="679" y="215" clip-path="url(#clipPath1)" fill="rgb(0,0,139)" width="5" stroke-dasharray="none" height="5" stroke="none"/>
            <line clip-path="url(#clipPath1)" fill="none" x1="681" x2="697" y1="217" y2="205" stroke-dasharray="none" stroke="rgb(0,0,139)"/>
            <rect x="695" y="203" clip-path="url(#clipPath1)" fill="rgb(0,0,139)" width="5" stroke-dasharray="none" height="5" stroke="none"/>
            <line clip-path="url(#clipPath1)" fill="none" x1="697" x2="698" y1="205" y2="192" stroke-dasharray="none" stroke="rgb(0,0,139)"/>
            <rect x="696" y="190" clip-path="url(#clipPath1)" fill="rgb(0,0,139)" width="5" stroke-dasharray="none" height="5" stroke="none"/>
            <line clip-path="url(#clipPath1)" fill="none" x1="698" x2="715" y1="192" y2="180" stroke-dasharray="none" stroke="rgb(0,0,139)"/>
            <rect x="713" y="178" clip-path="url(#clipPath1)" fill="rgb(0,0,139)" width="5" stroke-dasharray="none" height="5" stroke="none"/>
            <line clip-path="url(#clipPath1)" fill="none" x1="715" x2="719" y1="180" y2="167" stroke-dasharray="none" stroke="rgb(0,0,139)"/>
            <rect x="717" y="165" clip-path="url(#clipPath1)" fill="rgb(0,0,139)" width="5" stroke-dasharray="none" height="5" stroke="none"/>
            <line clip-path="url(#clipPath1)" fill="none" x1="719" x2="727" y1="167" y2="155" stroke-dasharray="none" stroke="rgb(0,0,139)"/>
            <rect x="725" y="153" clip-path="url(#clipPath1)" fill="rgb(0,0,139)" width="5" stroke-dasharray="none" height="5" stroke="none"/>
            <rect x="32" y="23" clip-path="url(#clipPath2)" fill="none" width="704" stroke-dasharray="none" height="530" stroke="black"/>
        </g>
        <g text-rendering="geometricPrecision" font-size="13" stroke-linecap="butt">
            <line clip-path="url(#clipPath2)" fill="none" x1="32" x2="736" y1="21" y2="21"/>
            <line clip-path="url(#clipPath2)" fill="none" x1="32" x2="736" y1="555" y2="555"/>
            <line clip-path="url(#clipPath2)" fill="none" x1="32" x2="32" y1="17" y2="21"/>
            <line clip-path="url(#clipPath2)" fill="none" x1="32" x2="32" y1="559" y2="555"/>
            <text x="23" font-size="10" y="14" clip-path="url(#clipPath2)" stroke="none" xml:space="preserve">0.00</text>
            <text x="23" font-size="10" y="570" clip-path="url(#clipPath2)" stroke="none" xml:space="preserve">0.00</text>
            <line clip-path="url(#clipPath2)" fill="none" x1="71" x2="71" y1="19" y2="21"/>
            <line clip-path="url(#clipPath2)" fill="none" x1="71" x2="71" y1="557" y2="555"/>
            <line clip-path="url(#clipPath2)" fill="none" x1="110" x2="110" y1="17" y2="21"/>
            <line clip-path="url(#clipPath2)" fill="none" x1="110" x2="110" y1="559" y2="555"/>
            <text x="99" font-size="10" y="14" clip-path="url(#clipPath2)" stroke="none" xml:space="preserve">0.002</text>
            <text x="99" font-size="10" y="570" clip-path="url(#clipPath2)" stroke="none" xml:space="preserve">0.002</text>
            <line clip-path="url(#clipPath2)" fill="none" x1="149" x2="149" y1="19" y2="21"/>
            <line clip-path="url(#clipPath2)" fill="none" x1="149" x2="149" y1="557" y2="555"/>
            <line clip-path="url(#clipPath2)" fill="none" x1="189" x2="189" y1="17" y2="21"/>
            <line clip-path="url(#clipPath2)" fill="none" x1="189" x2="189" y1="559" y2="555"/>
            <text x="178" font-size="10" y="14" clip-path="url(#clipPath2)" stroke="none" xml:space="preserve">0.004</text>
            <text x="178" font-size="10" y="570" clip-path="url(#clipPath2)" stroke="none" xml:space="preserve">0.004</text>
            <line clip-path="url(#clipPath2)" fill="none" x1="228" x2="228" y1="19" y2="21"/>
            <line clip-path="url(#clipPath2)" fill="none" x1="228" x2="228" y1="557" y2="555"/>
            <line clip-path="url(#clipPath2)" fill="none" x1="267" x2="267" y1="17" y2="21"/>
            <line clip-path="url(#clipPath2)" fill="none" x1="267" x2="267" y1="559" y2="555"/>
            <text x="256" font-size="10" y="14" clip-path="url(#clipPath2)" stroke="none" xml:space="preserve">0.006</text>
            <text x="256" font-size="10" y="570" clip-path="url(#clipPath2)" stroke="none" xml:space="preserve">0.006</text>
            <line clip-path="url(#clipPath2)" fill="none" x1="306" x2="306" y1="19" y2="21"/>
            <line clip-path="url(#clipPath2)" fill="none" x1="306" x2="306" y1="557" y2="555"/>
            <line clip-path="url(#clipPath2)" fill="none" x1="346" x2="346" y1="17" y2="21"/>
            <line clip-path="url(#clipPath2)" fill="none" x1="346" x2="346" y1="559" y2="555"/>
            <text x="335" font-size="10" y="14" clip-path="url(#clipPath2)" stroke="none" xml:space="preserve">0.008</text>
            <text x="335" font-size="10" y="570" clip-path="url(#clipPath2)" stroke="none" xml:space="preserve">0.008</text>
            <line clip-path="url(#clipPath2)" fill="none" x1="385" x2="385" y1="19" y2="21"/>
            <line clip-path="url(#clipPath2)" fill="none" x1="385" x2="385" y1="557" y2="555"/>
            <line clip-path="url(#clipPath2)" fill="none" x1="424" x2="424" y1="17" y2="21"/>
            <line clip-path="url(#clipPath2)" fill="none" x1="424" x2="424" y1="559" y2="555"/>
            <text x="413" font-size="10" y="14" clip-path="url(#clipPath2)" stroke="none" xml:space="preserve">0.010</text>
            <text x="413" font-size="10" y="570" clip-path="url(#clipPath2)" stroke="none" xml:space="preserve">0.010</text>
            <line clip-path="url(#clipPath2)" fill="none" x1="464" x2="464" y1="19" y2="21"/>
            <line clip-path="url(#clipPath2)" fill="none" x1="464" x2="464" y1="557" y2="555"/>
            <line clip-path="url(#clipPath2)" fill="none" x1="503" x2="503" y1="17" y2="21"/>
            <line clip-path="url(#clipPath2)" fill="none" x1="503" x2="503" y1="559" y2="555"/>
            <text x="492" font-size="10" y="14" clip-path="url(#clipPath2)" stroke="none" xml:space="preserve">0.012</text>
            <text x="492" font-size="10" y="570" clip-path="url(#clipPath2)" stroke="none" xml:space="preserve">0.012</text>
            <line clip-path="url(#clipPath2)" fill="none" x1="542" x2="542" y1="19" y2="21"/>
            <line clip-path="url(#clipPath2)" fill="none" x1="542" x2="542" y1="557" y2="555"/>
            <line clip-path="url(#clipPath2)" fill="none" x1="581" x2="581" y1="17" y2="21"/>
            <line clip-path="url(#clipPath2)" fill="none" x1="581" x2="581" y1="559" y2="555"/>
            <text x="570" font-size="10" y="14" clip-path="url(#clipPath2)" stroke="none" xml:space="preserve">0.014</text>
            <text x="570" font-size="10" y="570" clip-path="url(#clipPath2)" stroke="none" xml:space="preserve">0.014</text>
            <line clip-path="url(#clipPath2)" fill="none" x1="621" x2="621" y1="19" y2="21"/>
            <line clip-path="url(#clipPath2)" fill="none" x1="621" x2="621" y1="557" y2="555"/>
            <line clip-path="url(#clipPath2)" fill="none" x1="660" x2="660" y1="17" y2="21"/>
            <line clip-path="url(#clipPath2)" fill="none" x1="660" x2="660" y1="559" y2="555"/>
            <text x="649" font-size="10" y="14" clip-path="url(#clipPath2)" stroke="none" xml:space="preserve">0.016</text>
            <text x="649" font-size="10" y="570" clip-path="url(#clipPath2)" stroke="none" xml:space="preserve">0.016</text>
            <line clip-path="url(#clipPath2)" fill="none" x1="699" x2="699" y1="19" y2="21"/>
            <line clip-path="url(#clipPath2)" fill="none" x1="699" x2="699" y1="557" y2="555"/>
            <line clip-path="url(#clipPath2)" fill="none" x1="30" x2="30" y1="23" y2="553"/>
            <line clip-path="url(#clipPath2)" fill="none" x1="738" x2="738" y1="23" y2="553"/>
            <line clip-path="url(#clipPath2)" fill="none" x1="26" x2="30" y1="553" y2="553"/>
            <line clip-path="url(#clipPath2)" fill="none" x1="742" x2="738" y1="553" y2="553"/>
            <text x="20" font-size="10" y="557" clip-path="url(#clipPath2)" stroke="none" xml:space="preserve">0</text>
            <text x="745" font-size="10" y="557" clip-path="url(#clipPath2)" stroke="none" xml:space="preserve">0</text>
            <line clip-path="url(#clipPath2)" fill="none" x1="28" x2="30" y1="511" y2="511"/>
            <line clip-path="url(#clipPath2)" fill="none" x1="740" x2="738" y1="511" y2="511"/>
            <line clip-path="url(#clipPath2)" fill="none" x1="26" x2="30" y1="470" y2="470"/>
            <line clip-path="url(#clipPath2)" fill="none" x1="742" x2="738" y1="470" y2="470"/>
            <text x="15" font-size="10" y="474" clip-path="url(#clipPath2)" stroke="none" xml:space="preserve">20</text>
            <text x="745" font-size="10" y="474" clip-path="url(#clipPath2)" stroke="none" xml:space="preserve">20</text>
            <line clip-path="url(#clipPath2)" fill="none" x1="28" x2="30" y1="428" y2="428"/>
            <line clip-path="url(#clipPath2)" fill="none" x1="740" x2="738" y1="428" y2="428"/>
            <line clip-path="url(#clipPath2)" fill="none" x1="26" x2="30" y1="387" y2="387"/>
            <line clip-path="url(#clipPath2)" fill="none" x1="742" x2="738" y1="387" y2="387"/>
            <text x="15" font-size="10" y="391" clip-path="url(#clipPath2)" stroke="none" xml:space="preserve">40</text>
            <text x="745" font-size="10" y="391" clip-path="url(#clipPath2)" stroke="none" xml:space="preserve">40</text>
            <line clip-path="url(#clipPath2)" fill="none" x1="28" x2="30" y1="345" y2="345"/>
            <line clip-path="url(#clipPath2)" fill="none" x1="740" x2="738" y1="345" y2="345"/>
            <line clip-path="url(#clipPath2)" fill="none" x1="26" x2="30" y1="304" y2="304"/>
            <line clip-path="url(#clipPath2)" fill="none" x1="742" x2="738" y1="304" y2="304"/>
            <text x="15" font-size="10" y="308" clip-path="url(#clipPath2)" stroke="none" xml:space="preserve">60</text>
            <text x="745" font-size="10" y="308" clip-path="url(#clipPath2)" stroke="none" xml:space="preserve">60</text>
            <line clip-path="url(#clipPath2)" fill="none" x1="28" x2="30" y1="263" y2="263"/>
            <line clip-path="url(#clipPath2)" fill="none" x1="740" x2="738" y1="263" y2="263"/>
            <line clip-path="url(#clipPath2)" fill="none" x1="26" x2="30" y1="221" y2="221"/>
            <line clip-path="url(#clipPath2)" fill="none" x1="742" x2="738" y1="221" y2="221"/>
            <text x="15" font-size="10" y="225" clip-path="url(#clipPath2)" stroke="none" xml:space="preserve">80</text>
            <text x="745" font-size="10" y="225" clip-path="url(#clipPath2)" stroke="none" xml:space="preserve">80</text>
            <line clip-path="url(#clipPath2)" fill="none" x1="28" x2="30" y1="180" y2="180"/>
            <line clip-path="url(#clipPath2)" fill="none" x1="740" x2="738" y1="180" y2="180"/>
            <line clip-path="url(#clipPath2)" fill="none" x1="26" x2="30" y1="138" y2="138"/>
            <line clip-path="url(#clipPath2)" fill="none" x1="742" x2="738" y1="138" y2="138"/>
            <text x="10" font-size="10" y="142" clip-path="url(#clipPath2)" stroke="none" xml:space="preserve">100</text>
            <text x="745" font-size="10" y="142" clip-path="url(#clipPath2)" stroke="none" xml:space="preserve">100</text>
            <line clip-path="url(#clipPath2)" fill="none" x1="28" x2="30" y1="97" y2="97"/>
            <line clip-path="url(#clipPath2)" fill="none" x1="740" x2="738" y1="97" y2="97"/>
            <line clip-path="url(#clipPath2)" fill="none" x1="26" x2="30" y1="56" y2="56"/>
            <line clip-path="url(#clipPath2)" fill="none" x1="742" x2="738" y1="56" y2="56"/>
            <text x="10" font-size="10" y="60" clip-path="url(#clipPath2)" stroke="none" xml:space="preserve">120</text>
            <text x="745" font-size="10" y="60" clip-path="url(#clipPath2)" stroke="none" xml:space="preserve">120</text>
        </g>
    </g>
</svg>
